<svg id="Capa_1" enable-background="new 0 0 512 512" height="512" viewBox="0 0 512 512" width="512" xmlns="http://www.w3.org/2000/svg"><g><g><path d="m256 512c-1.452 0-2.904-.211-4.31-.633-61.357-18.407-114.001-55.302-152.239-106.695-38.239-51.394-58.451-112.419-58.451-176.478v-173.194c0-6.134 3.734-11.649 9.429-13.927 68.135-27.254 137.299-41.073 205.571-41.073s137.436 13.819 205.571 41.073c5.695 2.278 9.429 7.793 9.429 13.927v173.194c0 64.059-20.212 125.084-58.451 176.478-38.238 51.394-90.882 88.288-152.239 106.695-1.406.422-2.858.633-4.31.633z" fill="#999fed"/><path d="m412.549 404.672c38.239-51.394 58.451-112.419 58.451-176.478v-173.194c0-6.134-3.734-11.649-9.429-13.927-68.135-27.254-137.299-41.073-205.571-41.073v512c1.452 0 2.904-.211 4.31-.633 61.357-18.407 114.001-55.302 152.239-106.695z" fill="#7c84e8"/><path d="m71 65.249v162.945c0 116.71 74.154 217.858 185 253.106 110.846-35.248 185-136.396 185-253.106v-162.945c-122.812-46.701-247.188-46.701-370 0z" fill="#b6baf2"/><path d="m441 228.194v-162.945c-61.406-23.351-123.203-35.026-185-35.026v451.078c110.846-35.248 185-136.397 185-253.107z" fill="#999fed"/><path d="m276 227h-40c-30.198 12.079-50 41.327-50 73.852v66.148h140v-66.148c0-32.525-19.802-61.773-50-73.852z" fill="#e1ebf0"/><path d="m276 227h-20v140h70v-66.148c0-32.525-19.802-61.773-50-73.852z" fill="#cde1e6"/><path d="m266 307h-20c-33.137 0-60 26.863-60 60h140c0-33.137-26.863-60-60-60z" fill="#b2fa09"/><path d="m266 307h-10v60h70c0-33.137-26.863-60-60-60z" fill="#70da40"/><g><path d="m186 87v76l140-8v-68z" fill="#e1ebf0"/><path d="m256 159 70-4v-68h-70z" fill="#cde1e6"/><path d="m186 153.148c0 32.524 19.802 61.772 50 73.852h40c30.198-12.079 50-41.327 50-73.852v-6.148h-140z" fill="#b2fa09"/><path d="m256 227h20c30.198-12.079 50-41.327 50-73.852v-6.148h-70z" fill="#70da40"/><g><path d="m341 153.148v-73.148h-30v73.148c0 25.626-14.84 48.434-38.042 58.852h-33.916c-23.202-10.418-38.042-33.226-38.042-58.852v-73.148h-30v73.148c0 29.395 13.339 56.252 35.444 73.852-22.105 17.599-35.444 44.457-35.444 73.852v66.148h30v-66.148c0-25.626 14.84-48.434 38.042-58.852h33.916c23.202 10.418 38.042 33.226 38.042 58.852v66.148h30v-66.148c0-29.395-13.339-56.252-35.444-73.852 22.105-17.599 35.444-44.457 35.444-73.852z" fill="#fff5f5"/></g><path d="m311 153.148c0 25.626-14.84 48.434-38.042 58.852h-16.958v30h16.958c23.202 10.418 38.042 33.226 38.042 58.852v66.148h30v-66.148c0-29.395-13.339-56.252-35.444-73.852 22.105-17.599 35.444-44.457 35.444-73.852v-73.148h-30z" fill="#e1ebf0"/></g></g><g><path d="m346 382h-180c-8.284 0-15-6.716-15-15s6.716-15 15-15h180c8.284 0 15 6.716 15 15s-6.716 15-15 15z" fill="#cb671b"/></g><path d="m346 352h-90v30h90c8.284 0 15-6.716 15-15s-6.716-15-15-15z" fill="#9e5015"/><g><path d="m346 102h-180c-8.284 0-15-6.716-15-15s6.716-15 15-15h180c8.284 0 15 6.716 15 15s-6.716 15-15 15z" fill="#cb671b"/></g><path d="m346 72h-90v30h90c8.284 0 15-6.716 15-15s-6.716-15-15-15z" fill="#9e5015"/></g></svg>